<svg width="118" height="47" viewBox="0 0 118 47" fill="none" xmlns="http://www.w3.org/2000/svg">
<path d="M11.9024 16.7164C13.8464 16.4764 15.4184 15.6484 16.6184 14.2324C17.8184 12.7924 18.4184 11.0884 18.4184 9.12038C18.4184 7.80038 18.0944 6.55238 17.4464 5.37638C16.8224 4.20038 15.9584 3.28838 14.8544 2.64038C13.8944 2.08838 12.8504 1.74038 11.7224 1.59638C10.6184 1.45238 9.27438 1.38038 7.69038 1.38038H3.58638V28.5244H6.97039V17.0404H8.37439L16.3664 28.5244H20.4704L11.9024 16.7164ZM6.97039 4.40438H7.87039C8.83039 4.40438 9.73038 4.46438 10.5704 4.58438C11.4104 4.70438 12.1784 4.93238 12.8744 5.26838C13.5944 5.60438 14.1704 6.10838 14.6024 6.78038C15.0344 7.42838 15.2504 8.25638 15.2504 9.26438C15.2504 10.2964 15.0464 11.1484 14.6384 11.8204C14.2544 12.4684 13.7144 12.9724 13.0184 13.3324C12.3464 13.6684 11.6024 13.9084 10.7864 14.0524C9.97039 14.1724 9.05839 14.2324 8.05039 14.2324H6.97039V4.40438ZM35.4453 0.804382C33.5253 0.804382 31.7013 1.17638 29.9733 1.92038C28.2453 2.64038 26.7213 3.66038 25.4013 4.98038C24.1053 6.27638 23.0853 7.78838 22.3413 9.51638C21.5973 11.2444 21.2253 13.0564 21.2253 14.9524C21.2253 16.9204 21.5853 18.7804 22.3053 20.5324C23.0493 22.2604 24.0693 23.7724 25.3653 25.0684C26.6853 26.3404 28.2093 27.3364 29.9373 28.0564C31.6653 28.7524 33.5013 29.1004 35.4453 29.1004C37.3893 29.1004 39.2253 28.7524 40.9533 28.0564C42.6813 27.3364 44.1933 26.3404 45.4893 25.0684C46.8093 23.7724 47.8293 22.2604 48.5493 20.5324C49.2933 18.7804 49.6653 16.9204 49.6653 14.9524C49.6653 13.0564 49.2933 11.2444 48.5493 9.51638C47.8053 7.78838 46.7733 6.27638 45.4533 4.98038C44.1573 3.66038 42.6453 2.64038 40.9173 1.92038C39.1893 1.17638 37.3653 0.804382 35.4453 0.804382ZM35.4453 25.9324C33.9813 25.9324 32.5893 25.6564 31.2693 25.1044C29.9733 24.5524 28.8213 23.7724 27.8133 22.7644C26.8053 21.7564 26.0133 20.5804 25.4373 19.2364C24.8853 17.8924 24.6093 16.4644 24.6093 14.9524C24.6093 13.4644 24.8733 12.0604 25.4013 10.7404C25.9293 9.39638 26.6733 8.22038 27.6333 7.21238C28.6173 6.18038 29.7693 5.38838 31.0893 4.83638C32.4333 4.26038 33.8853 3.97238 35.4453 3.97238C37.0053 3.97238 38.4453 4.26038 39.7653 4.83638C41.1093 5.38838 42.2613 6.18038 43.2213 7.21238C44.2053 8.22038 44.9613 9.39638 45.4893 10.7404C46.0173 12.0604 46.2813 13.4644 46.2813 14.9524C46.2813 16.4644 45.9933 17.8924 45.4173 19.2364C44.8653 20.5804 44.0853 21.7564 43.0773 22.7644C42.0693 23.7724 40.9053 24.5524 39.5853 25.1044C38.2893 25.6564 36.9093 25.9324 35.4453 25.9324ZM60.2538 4.47638H66.6978V1.38038H50.4258V4.47638H56.8698V28.5244H60.2538V4.47638ZM82.7889 21.7204L85.8849 28.5244H89.5209L76.5609 0.228383L63.6009 28.5244H67.2369L70.3329 21.7204H82.7889ZM81.3849 18.6244H71.7369L76.5609 7.64438L81.3849 18.6244ZM91.4694 28.5244H94.8534V8.29238L115.229 29.6404V1.38038H111.845V21.4324L91.4694 0.0843828V28.5244Z" fill="#5C7D84"/>
<path d="M7.93304 42.4875H8.58104C9.02904 42.4875 9.44104 42.4395 9.81704 42.3435C10.201 42.2395 10.537 42.0835 10.825 41.8755C11.113 41.6595 11.337 41.3835 11.497 41.0475C11.665 40.7115 11.749 40.3115 11.749 39.8475C11.749 39.4155 11.685 39.0395 11.557 38.7195C11.437 38.3995 11.237 38.1315 10.957 37.9155C10.677 37.6915 10.301 37.5235 9.82904 37.4115C9.36504 37.2915 8.78904 37.2315 8.10104 37.2315H6.80504V46.2795H7.93304V42.4875ZM7.93304 38.2395H8.23304C8.56104 38.2395 8.86104 38.2595 9.13304 38.2995C9.41304 38.3315 9.66904 38.4035 9.90104 38.5155C10.141 38.6195 10.333 38.7795 10.477 38.9955C10.621 39.2115 10.693 39.4875 10.693 39.8235C10.693 40.1675 10.625 40.4515 10.489 40.6755C10.361 40.8915 10.181 41.0595 9.94904 41.1795C9.72504 41.2915 9.47704 41.3715 9.20504 41.4195C8.93304 41.4595 8.62904 41.4795 8.29304 41.4795H7.93304V38.2395ZM18.3984 40.8795V37.2315H17.2704V46.2795H18.3984V41.9355H22.7064V46.2795H23.8344V37.2315H22.7064V40.8795H18.3984ZM34.1881 37.0395C33.5481 37.0395 32.9401 37.1635 32.3641 37.4115C31.7881 37.6515 31.2801 37.9915 30.8401 38.4315C30.4081 38.8635 30.0681 39.3675 29.8201 39.9435C29.5721 40.5195 29.4481 41.1235 29.4481 41.7555C29.4481 42.4115 29.5681 43.0315 29.8081 43.6155C30.0561 44.1915 30.3961 44.6955 30.8281 45.1275C31.2681 45.5515 31.7761 45.8835 32.3521 46.1235C32.9281 46.3555 33.5401 46.4715 34.1881 46.4715C34.8361 46.4715 35.4481 46.3555 36.0241 46.1235C36.6001 45.8835 37.1041 45.5515 37.5361 45.1275C37.9761 44.6955 38.3161 44.1915 38.5561 43.6155C38.8041 43.0315 38.9281 42.4115 38.9281 41.7555C38.9281 41.1235 38.8041 40.5195 38.5561 39.9435C38.3081 39.3675 37.9641 38.8635 37.5241 38.4315C37.0921 37.9915 36.5881 37.6515 36.0121 37.4115C35.4361 37.1635 34.8281 37.0395 34.1881 37.0395ZM34.1881 45.4155C33.7001 45.4155 33.2361 45.3235 32.7961 45.1395C32.3641 44.9555 31.9801 44.6955 31.6441 44.3595C31.3081 44.0235 31.0441 43.6315 30.8521 43.1835C30.6681 42.7355 30.5761 42.2595 30.5761 41.7555C30.5761 41.2595 30.6641 40.7915 30.8401 40.3515C31.0161 39.9035 31.2641 39.5115 31.5841 39.1755C31.9121 38.8315 32.2961 38.5675 32.7361 38.3835C33.1841 38.1915 33.6681 38.0955 34.1881 38.0955C34.7081 38.0955 35.1881 38.1915 35.6281 38.3835C36.0761 38.5675 36.4601 38.8315 36.7801 39.1755C37.1081 39.5115 37.3601 39.9035 37.5361 40.3515C37.7121 40.7915 37.8001 41.2595 37.8001 41.7555C37.8001 42.2595 37.7041 42.7355 37.5121 43.1835C37.3281 43.6315 37.0681 44.0235 36.7321 44.3595C36.3961 44.6955 36.0081 44.9555 35.5681 45.1395C35.1361 45.3235 34.6761 45.4155 34.1881 45.4155ZM49.2976 41.7195V42.7515H51.6376C51.6296 43.1115 51.5376 43.4555 51.3616 43.7835C51.1856 44.1035 50.9536 44.3915 50.6656 44.6475C50.3856 44.8955 50.0696 45.0915 49.7176 45.2355C49.3736 45.3715 49.0256 45.4395 48.6736 45.4395C48.2016 45.4395 47.7496 45.3395 47.3176 45.1395C46.8856 44.9315 46.5056 44.6515 46.1776 44.2995C45.8576 43.9475 45.6056 43.5515 45.4216 43.1115C45.2456 42.6635 45.1576 42.2075 45.1576 41.7435C45.1576 41.2475 45.2496 40.7755 45.4336 40.3275C45.6176 39.8795 45.8736 39.4875 46.2016 39.1515C46.5296 38.8075 46.9136 38.5435 47.3536 38.3595C47.8016 38.1675 48.2736 38.0715 48.7696 38.0715C49.3136 38.0715 49.8416 38.2075 50.3536 38.4795C50.8656 38.7435 51.2856 39.0995 51.6136 39.5475L52.4056 38.7915C51.9656 38.2395 51.4176 37.8115 50.7616 37.5075C50.1136 37.1955 49.4336 37.0395 48.7216 37.0395C48.0816 37.0395 47.4736 37.1635 46.8976 37.4115C46.3296 37.6515 45.8296 37.9915 45.3976 38.4315C44.9656 38.8715 44.6296 39.3795 44.3896 39.9555C44.1496 40.5315 44.0296 41.1395 44.0296 41.7795C44.0296 42.3955 44.1456 42.9875 44.3776 43.5555C44.6176 44.1235 44.9456 44.6275 45.3616 45.0675C45.7856 45.5075 46.2776 45.8515 46.8376 46.0995C47.3976 46.3475 47.9856 46.4715 48.6016 46.4715C49.2176 46.4715 49.7896 46.3635 50.3176 46.1475C50.8456 45.9235 51.3016 45.6115 51.6856 45.2115C52.0696 44.8115 52.3656 44.3435 52.5736 43.8075C52.7816 43.2715 52.8856 42.6955 52.8856 42.0795V41.7195H49.2976ZM61.3969 42.3435C62.0449 42.2635 62.5689 41.9875 62.9689 41.5155C63.3689 41.0355 63.5689 40.4675 63.5689 39.8115C63.5689 39.3715 63.4609 38.9555 63.2449 38.5635C63.0369 38.1715 62.7489 37.8675 62.3809 37.6515C62.0609 37.4675 61.7129 37.3515 61.3369 37.3035C60.9689 37.2555 60.5209 37.2315 59.9929 37.2315H58.6249V46.2795H59.7529V42.4515H60.2209L62.8849 46.2795H64.2529L61.3969 42.3435ZM59.7529 38.2395H60.0529C60.3729 38.2395 60.6729 38.2595 60.9529 38.2995C61.2329 38.3395 61.4889 38.4155 61.7209 38.5275C61.9609 38.6395 62.1529 38.8075 62.2969 39.0315C62.4409 39.2475 62.5129 39.5235 62.5129 39.8595C62.5129 40.2035 62.4449 40.4875 62.3089 40.7115C62.1809 40.9275 62.0009 41.0955 61.7689 41.2155C61.5449 41.3275 61.2969 41.4075 61.0249 41.4555C60.7529 41.4955 60.4489 41.5155 60.1129 41.5155H59.7529V38.2395ZM75.1965 44.0115L76.2285 46.2795H77.4405L73.1205 36.8475L68.8005 46.2795H70.0125L71.0445 44.0115H75.1965ZM74.7285 42.9795H71.5125L73.1205 39.3195L74.7285 42.9795ZM83.946 42.4875H84.594C85.042 42.4875 85.454 42.4395 85.83 42.3435C86.214 42.2395 86.55 42.0835 86.838 41.8755C87.126 41.6595 87.35 41.3835 87.51 41.0475C87.678 40.7115 87.762 40.3115 87.762 39.8475C87.762 39.4155 87.698 39.0395 87.57 38.7195C87.45 38.3995 87.25 38.1315 86.97 37.9155C86.69 37.6915 86.314 37.5235 85.842 37.4115C85.378 37.2915 84.802 37.2315 84.114 37.2315H82.818V46.2795H83.946V42.4875ZM83.946 38.2395H84.246C84.574 38.2395 84.874 38.2595 85.146 38.2995C85.426 38.3315 85.682 38.4035 85.914 38.5155C86.154 38.6195 86.346 38.7795 86.49 38.9955C86.634 39.2115 86.706 39.4875 86.706 39.8235C86.706 40.1675 86.638 40.4515 86.502 40.6755C86.374 40.8915 86.194 41.0595 85.962 41.1795C85.738 41.2915 85.49 41.3715 85.218 41.4195C84.946 41.4595 84.642 41.4795 84.306 41.4795H83.946V38.2395ZM94.4114 40.8795V37.2315H93.2834V46.2795H94.4114V41.9355H98.7194V46.2795H99.8474V37.2315H98.7194V40.8795H94.4114ZM108.113 42.3435V46.2795H109.241V42.3435L112.193 37.2315H110.897L108.677 41.0955L106.457 37.2315H105.161L108.113 42.3435Z" fill="#5C7D84"/>
</svg>
