<svg width="84" height="84" viewBox="0 0 84 84" fill="none" xmlns="http://www.w3.org/2000/svg">
<circle cx="42.182" cy="42.1143" r="41.7805" fill="#F4F4F4"/>
<path d="M43.4457 43.7924C46.0377 43.4724 48.1337 42.3684 49.7337 40.4804C51.3337 38.5604 52.1337 36.2884 52.1337 33.6644C52.1337 31.9044 51.7017 30.2404 50.8377 28.6724C50.0057 27.1044 48.8537 25.8884 47.3817 25.0244C46.1017 24.2884 44.7097 23.8244 43.2057 23.6324C41.7337 23.4404 39.9417 23.3444 37.8297 23.3444H32.3577V59.5364H36.8697V44.2244H38.7417L49.3977 59.5364H54.8697L43.4457 43.7924ZM36.8697 27.3764H38.0697C39.3497 27.3764 40.5497 27.4564 41.6697 27.6164C42.7897 27.7764 43.8137 28.0804 44.7417 28.5284C45.7017 28.9764 46.4697 29.6484 47.0457 30.5444C47.6217 31.4084 47.9097 32.5124 47.9097 33.8564C47.9097 35.2324 47.6377 36.3684 47.0937 37.2644C46.5817 38.1284 45.8617 38.8004 44.9337 39.2804C44.0377 39.7284 43.0457 40.0484 41.9577 40.2404C40.8697 40.4004 39.6537 40.4804 38.3097 40.4804H36.8697V27.3764Z" fill="#5C7D84"/>
</svg>
